<svg xmlns="http://www.w3.org/2000/svg" width="2160" height="510" viewBox="0 0 2160 510">
<style>text { font-family: "Segoe UI", "Microsoft YaHei", sans-serif; fill: #222; }.title { font-size: 24px; font-weight: 700; }.subtitle { font-size: 14px; fill: #555; }.lane { font-size: 13px; font-weight: 600; }.tick { font-size: 11px; fill: #666; }.bartext { font-size: 11px; fill: #fff; font-weight: 600; }.marker { font-size: 11px; fill: #333; }</style>
<rect x="0" y="0" width="2160" height="510" fill="#ffffff"/>
<text class="title" x="360" y="38">petri_batch10_v3_20260329 Scheduling Gantt</text>
<text class="subtitle" x="360" y="66">status=optimal | best_obj=750.0 | c_max=750.000</text>
<text class="subtitle" x="360" y="88">Labels are clipped to the bar width. Narrow bars use short labels or hover titles to avoid overlap.</text>
<line x1="360.00" y1="110" x2="360.00" y2="422" stroke="#efefef" stroke-width="1"/>
<text class="tick" x="348.00" y="448">0.0</text>
<line x1="500.00" y1="110" x2="500.00" y2="422" stroke="#efefef" stroke-width="1"/>
<text class="tick" x="488.00" y="448">62.5</text>
<line x1="640.00" y1="110" x2="640.00" y2="422" stroke="#efefef" stroke-width="1"/>
<text class="tick" x="628.00" y="448">125.0</text>
<line x1="780.00" y1="110" x2="780.00" y2="422" stroke="#efefef" stroke-width="1"/>
<text class="tick" x="768.00" y="448">187.5</text>
<line x1="920.00" y1="110" x2="920.00" y2="422" stroke="#efefef" stroke-width="1"/>
<text class="tick" x="908.00" y="448">250.0</text>
<line x1="1060.00" y1="110" x2="1060.00" y2="422" stroke="#efefef" stroke-width="1"/>
<text class="tick" x="1048.00" y="448">312.5</text>
<line x1="1200.00" y1="110" x2="1200.00" y2="422" stroke="#efefef" stroke-width="1"/>
<text class="tick" x="1188.00" y="448">375.0</text>
<line x1="1340.00" y1="110" x2="1340.00" y2="422" stroke="#efefef" stroke-width="1"/>
<text class="tick" x="1328.00" y="448">437.5</text>
<line x1="1480.00" y1="110" x2="1480.00" y2="422" stroke="#efefef" stroke-width="1"/>
<text class="tick" x="1468.00" y="448">500.0</text>
<line x1="1620.00" y1="110" x2="1620.00" y2="422" stroke="#efefef" stroke-width="1"/>
<text class="tick" x="1608.00" y="448">562.5</text>
<line x1="1760.00" y1="110" x2="1760.00" y2="422" stroke="#efefef" stroke-width="1"/>
<text class="tick" x="1748.00" y="448">625.0</text>
<line x1="1900.00" y1="110" x2="1900.00" y2="422" stroke="#efefef" stroke-width="1"/>
<text class="tick" x="1888.00" y="448">687.5</text>
<line x1="2040.00" y1="110" x2="2040.00" y2="422" stroke="#efefef" stroke-width="1"/>
<text class="tick" x="2028.00" y="448">750.0</text>
<line x1="360" y1="160" x2="2040" y2="160" stroke="#dddddd" stroke-width="1"/>
<text class="lane" x="18.00" y="134.00"><tspan x="18.00" dy="0">PM2 4x1</tspan></text>
<line x1="360" y1="234" x2="2040" y2="234" stroke="#dddddd" stroke-width="1"/>
<text class="lane" x="18.00" y="208.00"><tspan x="18.00" dy="0">PM1 2x2</tspan></text>
<line x1="360" y1="308" x2="2040" y2="308" stroke="#dddddd" stroke-width="1"/>
<text class="lane" x="18.00" y="282.00"><tspan x="18.00" dy="0">Pair completion</tspan></text>
<line x1="360" y1="382" x2="2040" y2="382" stroke="#dddddd" stroke-width="1"/>
<text class="lane" x="18.00" y="356.00"><tspan x="18.00" dy="0">Wafer completion</tspan></text>
<g><title>slot 1
F2(W3,W4),F6(W11,W12)</title><rect x="360.00" y="118.00" width="268.80" height="28" rx="4" ry="4" fill="#4C78A8" fill-opacity="0.9" stroke="#2f2f2f" stroke-width="0.7"/></g>
<clipPath id="task_clip_0"><rect x="362.00" y="119.00" width="264.80" height="26.00"/></clipPath><text class="bartext" x="368.00" y="130.50" clip-path="url(#task_clip_0)"><tspan x="368.00" dy="0">slot 1</tspan><tspan x="368.00" dy="12">F2(W3,W4),F6(W11,W12)</tspan></text>
<g><title>slot 2
F4(W7,W8),F5(W9,W10)</title><rect x="642.24" y="118.00" width="268.80" height="28" rx="4" ry="4" fill="#4C78A8" fill-opacity="0.9" stroke="#2f2f2f" stroke-width="0.7"/></g>
<clipPath id="task_clip_1"><rect x="644.24" y="119.00" width="264.80" height="26.00"/></clipPath><text class="bartext" x="650.24" y="130.50" clip-path="url(#task_clip_1)"><tspan x="650.24" dy="0">slot 2</tspan><tspan x="650.24" dy="12">F4(W7,W8),F5(W9,W10)</tspan></text>
<g><title>slot 3
F1(W1,W2),F8(W15,W16)</title><rect x="924.48" y="118.00" width="268.80" height="28" rx="4" ry="4" fill="#4C78A8" fill-opacity="0.9" stroke="#2f2f2f" stroke-width="0.7"/></g>
<clipPath id="task_clip_2"><rect x="926.48" y="119.00" width="264.80" height="26.00"/></clipPath><text class="bartext" x="932.48" y="130.50" clip-path="url(#task_clip_2)"><tspan x="932.48" dy="0">slot 3</tspan><tspan x="932.48" dy="12">F1(W1,W2),F8(W15,W16)</tspan></text>
<g><title>slot 4
F3(W5,W6),F11(W21,W22)</title><rect x="1206.72" y="118.00" width="268.80" height="28" rx="4" ry="4" fill="#4C78A8" fill-opacity="0.9" stroke="#2f2f2f" stroke-width="0.7"/></g>
<clipPath id="task_clip_3"><rect x="1208.72" y="119.00" width="264.80" height="26.00"/></clipPath><text class="bartext" x="1214.72" y="130.50" clip-path="url(#task_clip_3)"><tspan x="1214.72" dy="0">slot 4</tspan><tspan x="1214.72" dy="12">F3(W5,W6),F11(W21,W22)</tspan></text>
<g><title>slot 5
F7(W13,W14),F12(W23,W24)</title><rect x="1488.96" y="118.00" width="268.80" height="28" rx="4" ry="4" fill="#4C78A8" fill-opacity="0.9" stroke="#2f2f2f" stroke-width="0.7"/></g>
<clipPath id="task_clip_4"><rect x="1490.96" y="119.00" width="264.80" height="26.00"/></clipPath><text class="bartext" x="1496.96" y="130.50" clip-path="url(#task_clip_4)"><tspan x="1496.96" dy="0">slot 5</tspan><tspan x="1496.96" dy="12">F7(W13,W14),F12(W23,W24)</tspan></text>
<g><title>slot 6
F9(W17,W18),F10(W19,W20)</title><rect x="1771.20" y="118.00" width="268.80" height="28" rx="4" ry="4" fill="#4C78A8" fill-opacity="0.9" stroke="#2f2f2f" stroke-width="0.7"/></g>
<clipPath id="task_clip_5"><rect x="1773.20" y="119.00" width="264.80" height="26.00"/></clipPath><text class="bartext" x="1779.20" y="130.50" clip-path="url(#task_clip_5)"><tspan x="1779.20" dy="0">slot 6</tspan><tspan x="1779.20" dy="12">F9(W17,W18),F10(W19,W20)</tspan></text>
<g><title>cycle 1
PEC + M1(W25,W26) 1st</title><rect x="360.00" y="192.00" width="156.80" height="28" rx="4" ry="4" fill="#F58518" fill-opacity="0.9" stroke="#2f2f2f" stroke-width="0.7"/></g>
<clipPath id="task_clip_6"><rect x="362.00" y="193.00" width="152.80" height="26.00"/></clipPath><text class="bartext" x="368.00" y="204.50" clip-path="url(#task_clip_6)"><tspan x="368.00" dy="0">cycle 1</tspan><tspan x="368.00" dy="12">PEC + M1(W25,W26...</tspan></text>
<g><title>cycle 2
M1(W25,W26) 2nd + M2(W27,W28) 1st</title><rect x="530.24" y="192.00" width="156.80" height="28" rx="4" ry="4" fill="#54A24B" fill-opacity="0.9" stroke="#2f2f2f" stroke-width="0.7"/></g>
<clipPath id="task_clip_7"><rect x="532.24" y="193.00" width="152.80" height="26.00"/></clipPath><text class="bartext" x="538.24" y="204.50" clip-path="url(#task_clip_7)"><tspan x="538.24" dy="0">cycle 2</tspan><tspan x="538.24" dy="12">M1(W25,W26) 2nd ...</tspan></text>
<g><title>cycle 3
M2(W27,W28) 2nd + M3(W29,W30) 1st</title><rect x="700.48" y="192.00" width="156.80" height="28" rx="4" ry="4" fill="#54A24B" fill-opacity="0.9" stroke="#2f2f2f" stroke-width="0.7"/></g>
<clipPath id="task_clip_8"><rect x="702.48" y="193.00" width="152.80" height="26.00"/></clipPath><text class="bartext" x="708.48" y="204.50" clip-path="url(#task_clip_8)"><tspan x="708.48" dy="0">cycle 3</tspan><tspan x="708.48" dy="12">M2(W27,W28) 2nd ...</tspan></text>
<g><title>cycle 4
M3(W29,W30) 2nd + M4(W31,W32) 1st</title><rect x="870.72" y="192.00" width="156.80" height="28" rx="4" ry="4" fill="#54A24B" fill-opacity="0.9" stroke="#2f2f2f" stroke-width="0.7"/></g>
<clipPath id="task_clip_9"><rect x="872.72" y="193.00" width="152.80" height="26.00"/></clipPath><text class="bartext" x="878.72" y="204.50" clip-path="url(#task_clip_9)"><tspan x="878.72" dy="0">cycle 4</tspan><tspan x="878.72" dy="12">M3(W29,W30) 2nd ...</tspan></text>
<g><title>cycle 5
M4(W31,W32) 2nd + M5(W33,W34) 1st</title><rect x="1040.96" y="192.00" width="156.80" height="28" rx="4" ry="4" fill="#54A24B" fill-opacity="0.9" stroke="#2f2f2f" stroke-width="0.7"/></g>
<clipPath id="task_clip_10"><rect x="1042.96" y="193.00" width="152.80" height="26.00"/></clipPath><text class="bartext" x="1048.96" y="204.50" clip-path="url(#task_clip_10)"><tspan x="1048.96" dy="0">cycle 5</tspan><tspan x="1048.96" dy="12">M4(W31,W32) 2nd ...</tspan></text>
<g><title>cycle 6
M5(W33,W34) 2nd + M6(W35,W36) 1st</title><rect x="1211.20" y="192.00" width="156.80" height="28" rx="4" ry="4" fill="#54A24B" fill-opacity="0.9" stroke="#2f2f2f" stroke-width="0.7"/></g>
<clipPath id="task_clip_11"><rect x="1213.20" y="193.00" width="152.80" height="26.00"/></clipPath><text class="bartext" x="1219.20" y="204.50" clip-path="url(#task_clip_11)"><tspan x="1219.20" dy="0">cycle 6</tspan><tspan x="1219.20" dy="12">M5(W33,W34) 2nd ...</tspan></text>
<g><title>cycle 7
M6(W35,W36) 2nd + M7(W37,W38) 1st</title><rect x="1381.44" y="192.00" width="156.80" height="28" rx="4" ry="4" fill="#54A24B" fill-opacity="0.9" stroke="#2f2f2f" stroke-width="0.7"/></g>
<clipPath id="task_clip_12"><rect x="1383.44" y="193.00" width="152.80" height="26.00"/></clipPath><text class="bartext" x="1389.44" y="204.50" clip-path="url(#task_clip_12)"><tspan x="1389.44" dy="0">cycle 7</tspan><tspan x="1389.44" dy="12">M6(W35,W36) 2nd ...</tspan></text>
<g><title>cycle 8
M7(W37,W38) 2nd + M8(W39+PEC) 1st</title><rect x="1551.68" y="192.00" width="156.80" height="28" rx="4" ry="4" fill="#54A24B" fill-opacity="0.9" stroke="#2f2f2f" stroke-width="0.7"/></g>
<clipPath id="task_clip_13"><rect x="1553.68" y="193.00" width="152.80" height="26.00"/></clipPath><text class="bartext" x="1559.68" y="204.50" clip-path="url(#task_clip_13)"><tspan x="1559.68" dy="0">cycle 8</tspan><tspan x="1559.68" dy="12">M7(W37,W38) 2nd ...</tspan></text>
<g><title>cycle 9
M8(W39+PEC) 2nd + PEC</title><rect x="1721.92" y="192.00" width="156.80" height="28" rx="4" ry="4" fill="#F58518" fill-opacity="0.9" stroke="#2f2f2f" stroke-width="0.7"/></g>
<clipPath id="task_clip_14"><rect x="1723.92" y="193.00" width="152.80" height="26.00"/></clipPath><text class="bartext" x="1729.92" y="204.50" clip-path="url(#task_clip_14)"><tspan x="1729.92" dy="0">cycle 9</tspan><tspan x="1729.92" dy="12">M8(W39+PEC) 2nd ...</tspan></text>
<polygon points="1193.28,272.00 1201.28,280.00 1193.28,288.00 1185.28,280.00" fill="#E45756" stroke="#7A1F1E" stroke-width="0.8"/>
<text class="marker" x="1203.28" y="284.00" text-anchor="start">F1</text>
<polygon points="2040.00,272.00 2048.00,280.00 2040.00,288.00 2032.00,280.00" fill="#E45756" stroke="#7A1F1E" stroke-width="0.8"/>
<text class="marker" x="2030.00" y="284.00" text-anchor="end">F10</text>
<polygon points="1475.52,272.00 1483.52,280.00 1475.52,288.00 1467.52,280.00" fill="#E45756" stroke="#7A1F1E" stroke-width="0.8"/>
<text class="marker" x="1485.52" y="284.00" text-anchor="start">F11</text>
<polygon points="1757.76,272.00 1765.76,280.00 1757.76,288.00 1749.76,280.00" fill="#E45756" stroke="#7A1F1E" stroke-width="0.8"/>
<text class="marker" x="1767.76" y="284.00" text-anchor="start">F12</text>
<polygon points="628.80,272.00 636.80,280.00 628.80,288.00 620.80,280.00" fill="#E45756" stroke="#7A1F1E" stroke-width="0.8"/>
<text class="marker" x="638.80" y="284.00" text-anchor="start">F2</text>
<polygon points="1475.52,272.00 1483.52,280.00 1475.52,288.00 1467.52,280.00" fill="#E45756" stroke="#7A1F1E" stroke-width="0.8"/>
<text class="marker" x="1485.52" y="284.00" text-anchor="start">F3</text>
<polygon points="911.04,272.00 919.04,280.00 911.04,288.00 903.04,280.00" fill="#E45756" stroke="#7A1F1E" stroke-width="0.8"/>
<text class="marker" x="921.04" y="284.00" text-anchor="start">F4</text>
<polygon points="911.04,272.00 919.04,280.00 911.04,288.00 903.04,280.00" fill="#E45756" stroke="#7A1F1E" stroke-width="0.8"/>
<text class="marker" x="921.04" y="284.00" text-anchor="start">F5</text>
<polygon points="628.80,272.00 636.80,280.00 628.80,288.00 620.80,280.00" fill="#E45756" stroke="#7A1F1E" stroke-width="0.8"/>
<text class="marker" x="638.80" y="284.00" text-anchor="start">F6</text>
<polygon points="1757.76,272.00 1765.76,280.00 1757.76,288.00 1749.76,280.00" fill="#E45756" stroke="#7A1F1E" stroke-width="0.8"/>
<text class="marker" x="1767.76" y="284.00" text-anchor="start">F7</text>
<polygon points="1193.28,272.00 1201.28,280.00 1193.28,288.00 1185.28,280.00" fill="#E45756" stroke="#7A1F1E" stroke-width="0.8"/>
<text class="marker" x="1203.28" y="284.00" text-anchor="start">F8</text>
<polygon points="2040.00,272.00 2048.00,280.00 2040.00,288.00 2032.00,280.00" fill="#E45756" stroke="#7A1F1E" stroke-width="0.8"/>
<text class="marker" x="2030.00" y="284.00" text-anchor="end">F9</text>
<polygon points="687.04,272.00 695.04,280.00 687.04,288.00 679.04,280.00" fill="#E45756" stroke="#7A1F1E" stroke-width="0.8"/>
<text class="marker" x="697.04" y="284.00" text-anchor="start">M1</text>
<polygon points="857.28,272.00 865.28,280.00 857.28,288.00 849.28,280.00" fill="#E45756" stroke="#7A1F1E" stroke-width="0.8"/>
<text class="marker" x="867.28" y="284.00" text-anchor="start">M2</text>
<polygon points="1027.52,272.00 1035.52,280.00 1027.52,288.00 1019.52,280.00" fill="#E45756" stroke="#7A1F1E" stroke-width="0.8"/>
<text class="marker" x="1037.52" y="284.00" text-anchor="start">M3</text>
<polygon points="1197.76,272.00 1205.76,280.00 1197.76,288.00 1189.76,280.00" fill="#E45756" stroke="#7A1F1E" stroke-width="0.8"/>
<text class="marker" x="1207.76" y="284.00" text-anchor="start">M4</text>
<polygon points="1368.00,272.00 1376.00,280.00 1368.00,288.00 1360.00,280.00" fill="#E45756" stroke="#7A1F1E" stroke-width="0.8"/>
<text class="marker" x="1378.00" y="284.00" text-anchor="start">M5</text>
<polygon points="1538.24,272.00 1546.24,280.00 1538.24,288.00 1530.24,280.00" fill="#E45756" stroke="#7A1F1E" stroke-width="0.8"/>
<text class="marker" x="1548.24" y="284.00" text-anchor="start">M6</text>
<polygon points="1708.48,272.00 1716.48,280.00 1708.48,288.00 1700.48,280.00" fill="#E45756" stroke="#7A1F1E" stroke-width="0.8"/>
<text class="marker" x="1718.48" y="284.00" text-anchor="start">M7</text>
<polygon points="1878.72,272.00 1886.72,280.00 1878.72,288.00 1870.72,280.00" fill="#E45756" stroke="#7A1F1E" stroke-width="0.8"/>
<text class="marker" x="1888.72" y="284.00" text-anchor="start">M8</text>
<polygon points="1193.28,346.00 1201.28,354.00 1193.28,362.00 1185.28,354.00" fill="#E45756" stroke="#7A1F1E" stroke-width="0.8"/>
<text class="marker" x="1203.28" y="358.00" text-anchor="start">W1</text>
<polygon points="1193.28,346.00 1201.28,354.00 1193.28,362.00 1185.28,354.00" fill="#E45756" stroke="#7A1F1E" stroke-width="0.8"/>
<text class="marker" x="1203.28" y="358.00" text-anchor="start">W2</text>
<polygon points="628.80,346.00 636.80,354.00 628.80,362.00 620.80,354.00" fill="#E45756" stroke="#7A1F1E" stroke-width="0.8"/>
<text class="marker" x="638.80" y="358.00" text-anchor="start">W3</text>
<polygon points="628.80,346.00 636.80,354.00 628.80,362.00 620.80,354.00" fill="#E45756" stroke="#7A1F1E" stroke-width="0.8"/>
<text class="marker" x="638.80" y="358.00" text-anchor="start">W4</text>
<polygon points="1475.52,346.00 1483.52,354.00 1475.52,362.00 1467.52,354.00" fill="#E45756" stroke="#7A1F1E" stroke-width="0.8"/>
<text class="marker" x="1485.52" y="358.00" text-anchor="start">W5</text>
<polygon points="1475.52,346.00 1483.52,354.00 1475.52,362.00 1467.52,354.00" fill="#E45756" stroke="#7A1F1E" stroke-width="0.8"/>
<text class="marker" x="1485.52" y="358.00" text-anchor="start">W6</text>
<polygon points="911.04,346.00 919.04,354.00 911.04,362.00 903.04,354.00" fill="#E45756" stroke="#7A1F1E" stroke-width="0.8"/>
<text class="marker" x="921.04" y="358.00" text-anchor="start">W7</text>
<polygon points="911.04,346.00 919.04,354.00 911.04,362.00 903.04,354.00" fill="#E45756" stroke="#7A1F1E" stroke-width="0.8"/>
<text class="marker" x="921.04" y="358.00" text-anchor="start">W8</text>
<polygon points="911.04,346.00 919.04,354.00 911.04,362.00 903.04,354.00" fill="#E45756" stroke="#7A1F1E" stroke-width="0.8"/>
<text class="marker" x="921.04" y="358.00" text-anchor="start">W9</text>
<polygon points="911.04,346.00 919.04,354.00 911.04,362.00 903.04,354.00" fill="#E45756" stroke="#7A1F1E" stroke-width="0.8"/>
<text class="marker" x="921.04" y="358.00" text-anchor="start">W10</text>
<polygon points="628.80,346.00 636.80,354.00 628.80,362.00 620.80,354.00" fill="#E45756" stroke="#7A1F1E" stroke-width="0.8"/>
<text class="marker" x="638.80" y="358.00" text-anchor="start">W11</text>
<polygon points="628.80,346.00 636.80,354.00 628.80,362.00 620.80,354.00" fill="#E45756" stroke="#7A1F1E" stroke-width="0.8"/>
<text class="marker" x="638.80" y="358.00" text-anchor="start">W12</text>
<polygon points="1757.76,346.00 1765.76,354.00 1757.76,362.00 1749.76,354.00" fill="#E45756" stroke="#7A1F1E" stroke-width="0.8"/>
<text class="marker" x="1767.76" y="358.00" text-anchor="start">W13</text>
<polygon points="1757.76,346.00 1765.76,354.00 1757.76,362.00 1749.76,354.00" fill="#E45756" stroke="#7A1F1E" stroke-width="0.8"/>
<text class="marker" x="1767.76" y="358.00" text-anchor="start">W14</text>
<polygon points="1193.28,346.00 1201.28,354.00 1193.28,362.00 1185.28,354.00" fill="#E45756" stroke="#7A1F1E" stroke-width="0.8"/>
<text class="marker" x="1203.28" y="358.00" text-anchor="start">W15</text>
<polygon points="1193.28,346.00 1201.28,354.00 1193.28,362.00 1185.28,354.00" fill="#E45756" stroke="#7A1F1E" stroke-width="0.8"/>
<text class="marker" x="1203.28" y="358.00" text-anchor="start">W16</text>
<polygon points="2040.00,346.00 2048.00,354.00 2040.00,362.00 2032.00,354.00" fill="#E45756" stroke="#7A1F1E" stroke-width="0.8"/>
<text class="marker" x="2030.00" y="358.00" text-anchor="end">W17</text>
<polygon points="2040.00,346.00 2048.00,354.00 2040.00,362.00 2032.00,354.00" fill="#E45756" stroke="#7A1F1E" stroke-width="0.8"/>
<text class="marker" x="2030.00" y="358.00" text-anchor="end">W18</text>
<polygon points="2040.00,346.00 2048.00,354.00 2040.00,362.00 2032.00,354.00" fill="#E45756" stroke="#7A1F1E" stroke-width="0.8"/>
<text class="marker" x="2030.00" y="358.00" text-anchor="end">W19</text>
<polygon points="2040.00,346.00 2048.00,354.00 2040.00,362.00 2032.00,354.00" fill="#E45756" stroke="#7A1F1E" stroke-width="0.8"/>
<text class="marker" x="2030.00" y="358.00" text-anchor="end">W20</text>
<polygon points="1475.52,346.00 1483.52,354.00 1475.52,362.00 1467.52,354.00" fill="#E45756" stroke="#7A1F1E" stroke-width="0.8"/>
<text class="marker" x="1485.52" y="358.00" text-anchor="start">W21</text>
<polygon points="1475.52,346.00 1483.52,354.00 1475.52,362.00 1467.52,354.00" fill="#E45756" stroke="#7A1F1E" stroke-width="0.8"/>
<text class="marker" x="1485.52" y="358.00" text-anchor="start">W22</text>
<polygon points="1757.76,346.00 1765.76,354.00 1757.76,362.00 1749.76,354.00" fill="#E45756" stroke="#7A1F1E" stroke-width="0.8"/>
<text class="marker" x="1767.76" y="358.00" text-anchor="start">W23</text>
<polygon points="1757.76,346.00 1765.76,354.00 1757.76,362.00 1749.76,354.00" fill="#E45756" stroke="#7A1F1E" stroke-width="0.8"/>
<text class="marker" x="1767.76" y="358.00" text-anchor="start">W24</text>
<polygon points="687.04,346.00 695.04,354.00 687.04,362.00 679.04,354.00" fill="#E45756" stroke="#7A1F1E" stroke-width="0.8"/>
<text class="marker" x="697.04" y="358.00" text-anchor="start">W25</text>
<polygon points="687.04,346.00 695.04,354.00 687.04,362.00 679.04,354.00" fill="#E45756" stroke="#7A1F1E" stroke-width="0.8"/>
<text class="marker" x="697.04" y="358.00" text-anchor="start">W26</text>
<polygon points="857.28,346.00 865.28,354.00 857.28,362.00 849.28,354.00" fill="#E45756" stroke="#7A1F1E" stroke-width="0.8"/>
<text class="marker" x="867.28" y="358.00" text-anchor="start">W27</text>
<polygon points="857.28,346.00 865.28,354.00 857.28,362.00 849.28,354.00" fill="#E45756" stroke="#7A1F1E" stroke-width="0.8"/>
<text class="marker" x="867.28" y="358.00" text-anchor="start">W28</text>
<polygon points="1027.52,346.00 1035.52,354.00 1027.52,362.00 1019.52,354.00" fill="#E45756" stroke="#7A1F1E" stroke-width="0.8"/>
<text class="marker" x="1037.52" y="358.00" text-anchor="start">W29</text>
<polygon points="1027.52,346.00 1035.52,354.00 1027.52,362.00 1019.52,354.00" fill="#E45756" stroke="#7A1F1E" stroke-width="0.8"/>
<text class="marker" x="1037.52" y="358.00" text-anchor="start">W30</text>
<polygon points="1197.76,346.00 1205.76,354.00 1197.76,362.00 1189.76,354.00" fill="#E45756" stroke="#7A1F1E" stroke-width="0.8"/>
<text class="marker" x="1207.76" y="358.00" text-anchor="start">W31</text>
<polygon points="1197.76,346.00 1205.76,354.00 1197.76,362.00 1189.76,354.00" fill="#E45756" stroke="#7A1F1E" stroke-width="0.8"/>
<text class="marker" x="1207.76" y="358.00" text-anchor="start">W32</text>
<polygon points="1368.00,346.00 1376.00,354.00 1368.00,362.00 1360.00,354.00" fill="#E45756" stroke="#7A1F1E" stroke-width="0.8"/>
<text class="marker" x="1378.00" y="358.00" text-anchor="start">W33</text>
<polygon points="1368.00,346.00 1376.00,354.00 1368.00,362.00 1360.00,354.00" fill="#E45756" stroke="#7A1F1E" stroke-width="0.8"/>
<text class="marker" x="1378.00" y="358.00" text-anchor="start">W34</text>
<polygon points="1538.24,346.00 1546.24,354.00 1538.24,362.00 1530.24,354.00" fill="#E45756" stroke="#7A1F1E" stroke-width="0.8"/>
<text class="marker" x="1548.24" y="358.00" text-anchor="start">W35</text>
<polygon points="1538.24,346.00 1546.24,354.00 1538.24,362.00 1530.24,354.00" fill="#E45756" stroke="#7A1F1E" stroke-width="0.8"/>
<text class="marker" x="1548.24" y="358.00" text-anchor="start">W36</text>
<polygon points="1708.48,346.00 1716.48,354.00 1708.48,362.00 1700.48,354.00" fill="#E45756" stroke="#7A1F1E" stroke-width="0.8"/>
<text class="marker" x="1718.48" y="358.00" text-anchor="start">W37</text>
<polygon points="1708.48,346.00 1716.48,354.00 1708.48,362.00 1700.48,354.00" fill="#E45756" stroke="#7A1F1E" stroke-width="0.8"/>
<text class="marker" x="1718.48" y="358.00" text-anchor="start">W38</text>
<polygon points="1878.72,346.00 1886.72,354.00 1878.72,362.00 1870.72,354.00" fill="#E45756" stroke="#7A1F1E" stroke-width="0.8"/>
<text class="marker" x="1888.72" y="358.00" text-anchor="start">W39</text>
<line x1="2040.00" y1="100" x2="2040.00" y2="414" stroke="#C00000" stroke-width="2.2" stroke-dasharray="8 4"/>
<text class="lane" x="2032.00" y="94" text-anchor="end">c_max=750.0</text>
</svg>